<?xml version="1.0" encoding="UTF-8" ?>
<svg version="1.1" width="27" height="24" xmlns="http://www.w3.org/2000/svg" shape-rendering="crispEdges">
<rect x="12" y="1" width="1" height="3" fill="#EEE6E1" />
<rect x="16" y="1" width="2" height="1" fill="#EEE6E1" />
<rect x="11" y="2" width="1" height="1" fill="#EEE6E1" />
<rect x="13" y="2" width="1" height="1" fill="#EEE6E1" />
<rect x="15" y="2" width="2" height="1" fill="#EEE6E1" />
<rect x="17" y="2" width="1" height="2" fill="#E5D6D8" />
<rect x="20" y="2" width="1" height="3" fill="#BDD8BA" />
<rect x="7" y="3" width="2" height="1" fill="#EEE6E1" />
<rect x="9" y="3" width="1" height="2" fill="#A0CAA2" />
<rect x="11" y="3" width="1" height="2" fill="#83BB89" />
<rect x="13" y="3" width="1" height="1" fill="#DAE6D2" />
<rect x="14" y="3" width="1" height="2" fill="#83BB89" />
<rect x="15" y="3" width="1" height="1" fill="#EEE6E1" />
<rect x="16" y="3" width="1" height="2" fill="#E5D6D8" />
<rect x="18" y="3" width="1" height="1" fill="#E5D6D8" />
<rect x="21" y="3" width="1" height="2" fill="#E5D6D8" />
<rect x="6" y="4" width="2" height="1" fill="#EEE6E1" />
<rect x="8" y="4" width="1" height="1" fill="#DAE6D2" />
<rect x="10" y="4" width="1" height="2" fill="#EEE6E1" />
<rect x="12" y="4" width="2" height="1" fill="#83BB89" />
<rect x="15" y="4" width="1" height="2" fill="#E5D6D8" />
<rect x="17" y="4" width="1" height="1" fill="#DAE6D2" />
<rect x="18" y="4" width="1" height="1" fill="#427566" />
<rect x="19" y="4" width="1" height="2" fill="#A0CAA2" />
<rect x="23" y="4" width="1" height="4" fill="#BDD8BA" />
<rect x="6" y="5" width="1" height="2" fill="#EEE6E1" />
<rect x="7" y="5" width="1" height="1" fill="#DAE6D2" />
<rect x="8" y="5" width="1" height="1" fill="#83BB89" />
<rect x="9" y="5" width="1" height="2" fill="#EEE6E1" />
<rect x="11" y="5" width="1" height="1" fill="#EEE6E1" />
<rect x="12" y="5" width="1" height="2" fill="#5A9C76" />
<rect x="13" y="5" width="1" height="1" fill="#427566" />
<rect x="14" y="5" width="1" height="1" fill="#E5D6D8" />
<rect x="16" y="5" width="1" height="2" fill="#DAE6D2" />
<rect x="17" y="5" width="1" height="2" fill="#427566" />
<rect x="18" y="5" width="1" height="3" fill="#A0CAA2" />
<rect x="20" y="5" width="1" height="4" fill="#83BB89" />
<rect x="21" y="5" width="1" height="1" fill="#BDD8BA" />
<rect x="22" y="5" width="1" height="2" fill="#E5D6D8" />
<rect x="4" y="6" width="1" height="3" fill="#EEE6E1" />
<rect x="7" y="6" width="1" height="1" fill="#4C8665" />
<rect x="8" y="6" width="1" height="1" fill="#EEE6E1" />
<rect x="10" y="6" width="2" height="1" fill="#DAE6D2" />
<rect x="13" y="6" width="1" height="1" fill="#83BB89" />
<rect x="14" y="6" width="1" height="1" fill="#427566" />
<rect x="15" y="6" width="1" height="1" fill="#DAE6D2" />
<rect x="19" y="6" width="1" height="1" fill="#BDD8BA" />
<rect x="21" y="6" width="1" height="3" fill="#427566" />
<rect x="24" y="6" width="1" height="1" fill="#4C8665" />
<rect x="5" y="7" width="1" height="1" fill="#DAE6D2" />
<rect x="7" y="7" width="1" height="1" fill="#83BB89" />
<rect x="8" y="7" width="1" height="1" fill="#4C8665" />
<rect x="9" y="7" width="1" height="1" fill="#DAE6D2" />
<rect x="10" y="7" width="2" height="1" fill="#5A9C76" />
<rect x="12" y="7" width="2" height="1" fill="#EEE6E1" />
<rect x="14" y="7" width="1" height="2" fill="#E5D6D8" />
<rect x="15" y="7" width="1" height="1" fill="#427566" />
<rect x="16" y="7" width="1" height="1" fill="#5A9C76" />
<rect x="17" y="7" width="1" height="1" fill="#A0CAA2" />
<rect x="19" y="7" width="1" height="1" fill="#EEE6E1" />
<rect x="22" y="7" width="1" height="1" fill="#4C8665" />
<rect x="24" y="7" width="1" height="2" fill="#5A9C76" />
<rect x="25" y="7" width="1" height="1" fill="#4C8665" />
<rect x="3" y="8" width="1" height="2" fill="#EEE6E1" />
<rect x="5" y="8" width="1" height="1" fill="#BDD8BA" />
<rect x="6" y="8" width="3" height="2" fill="#EEE6E1" />
<rect x="9" y="8" width="2" height="1" fill="#5A9C76" />
<rect x="11" y="8" width="1" height="1" fill="#427566" />
<rect x="12" y="8" width="1" height="1" fill="#EEE6E1" />
<rect x="13" y="8" width="1" height="2" fill="#E5D6D8" />
<rect x="15" y="8" width="1" height="1" fill="#DAE6D2" />
<rect x="16" y="8" width="2" height="1" fill="#427566" />
<rect x="18" y="8" width="1" height="2" fill="#E5D6D8" />
<rect x="19" y="8" width="1" height="1" fill="#BDD8BA" />
<rect x="22" y="8" width="1" height="1" fill="#BDD8BA" />
<rect x="23" y="8" width="1" height="2" fill="#5A9C76" />
<rect x="25" y="8" width="1" height="1" fill="#5A9C76" />
<rect x="26" y="8" width="1" height="1" fill="#4C8665" />
<rect x="2" y="9" width="1" height="1" fill="#EEE6E1" />
<rect x="4" y="9" width="1" height="1" fill="#5A9C76" />
<rect x="9" y="9" width="1" height="1" fill="#EEE6E1" />
<rect x="10" y="9" width="1" height="2" fill="#427566" />
<rect x="11" y="9" width="2" height="1" fill="#E5D6D8" />
<rect x="14" y="9" width="1" height="2" fill="#DAE6D2" />
<rect x="15" y="9" width="2" height="1" fill="#427566" />
<rect x="17" y="9" width="1" height="1" fill="#E5D6D8" />
<rect x="19" y="9" width="1" height="2" fill="#83BB89" />
<rect x="20" y="9" width="1" height="2" fill="#427566" />
<rect x="21" y="9" width="2" height="4" fill="#83BB89" />
<rect x="24" y="9" width="1" height="2" fill="#427566" />
<rect x="4" y="10" width="1" height="2" fill="#EEE6E1" />
<rect x="5" y="10" width="2" height="1" fill="#83BB89" />
<rect x="7" y="10" width="2" height="1" fill="#EEE6E1" />
<rect x="9" y="10" width="1" height="2" fill="#427566" />
<rect x="11" y="10" width="2" height="1" fill="#4C8665" />
<rect x="13" y="10" width="1" height="1" fill="#427566" />
<rect x="15" y="10" width="1" height="1" fill="#427566" />
<rect x="16" y="10" width="1" height="2" fill="#4C8665" />
<rect x="17" y="10" width="1" height="1" fill="#BDD8BA" />
<rect x="18" y="10" width="1" height="1" fill="#83BB89" />
<rect x="23" y="10" width="1" height="1" fill="#427566" />
<rect x="3" y="11" width="1" height="2" fill="#EEE6E1" />
<rect x="5" y="11" width="1" height="1" fill="#83BB89" />
<rect x="6" y="11" width="1" height="1" fill="#EEE6E1" />
<rect x="7" y="11" width="2" height="1" fill="#DAE6D2" />
<rect x="10" y="11" width="1" height="1" fill="#5A9C76" />
<rect x="11" y="11" width="1" height="1" fill="#EEE6E1" />
<rect x="12" y="11" width="1" height="2" fill="#E5D6D8" />
<rect x="13" y="11" width="1" height="2" fill="#DAE6D2" />
<rect x="14" y="11" width="1" height="2" fill="#427566" />
<rect x="15" y="11" width="1" height="1" fill="#4C8665" />
<rect x="17" y="11" width="1" height="1" fill="#83BB89" />
<rect x="18" y="11" width="2" height="1" fill="#427566" />
<rect x="20" y="11" width="1" height="2" fill="#4C8665" />
<rect x="23" y="11" width="2" height="1" fill="#83BB89" />
<rect x="4" y="12" width="1" height="1" fill="#BDD8BA" />
<rect x="5" y="12" width="1" height="1" fill="#4C8665" />
<rect x="6" y="12" width="1" height="1" fill="#83BB89" />
<rect x="7" y="12" width="3" height="1" fill="#4C8665" />
<rect x="10" y="12" width="1" height="1" fill="#EEE6E1" />
<rect x="11" y="12" width="1" height="1" fill="#E5D6D8" />
<rect x="15" y="12" width="2" height="1" fill="#83BB89" />
<rect x="17" y="12" width="2" height="1" fill="#427566" />
<rect x="19" y="12" width="1" height="4" fill="#BDD8BA" />
<rect x="23" y="12" width="1" height="2" fill="#83BB89" />
<rect x="24" y="12" width="1" height="2" fill="#427566" />
<rect x="2" y="13" width="1" height="2" fill="#EEE6E1" />
<rect x="3" y="13" width="1" height="2" fill="#BDD8BA" />
<rect x="4" y="13" width="2" height="1" fill="#5A9C76" />
<rect x="6" y="13" width="2" height="2" fill="#EEE6E1" />
<rect x="8" y="13" width="1" height="2" fill="#DAE6D2" />
<rect x="9" y="13" width="1" height="2" fill="#83BB89" />
<rect x="10" y="13" width="1" height="1" fill="#E5D6D8" />
<rect x="11" y="13" width="1" height="2" fill="#DAE6D2" />
<rect x="12" y="13" width="1" height="2" fill="#83BB89" />
<rect x="13" y="13" width="1" height="3" fill="#427566" />
<rect x="14" y="13" width="2" height="1" fill="#83BB89" />
<rect x="16" y="13" width="1" height="1" fill="#EEE6E1" />
<rect x="17" y="13" width="1" height="2" fill="#4C8665" />
<rect x="18" y="13" width="1" height="2" fill="#BDD8BA" />
<rect x="20" y="13" width="1" height="1" fill="#BDD8BA" />
<rect x="21" y="13" width="1" height="3" fill="#427566" />
<rect x="22" y="13" width="1" height="1" fill="#5A9C76" />
<rect x="5" y="14" width="1" height="1" fill="#5A9C76" />
<rect x="10" y="14" width="1" height="1" fill="#83BB89" />
<rect x="14" y="14" width="1" height="1" fill="#83BB89" />
<rect x="15" y="14" width="1" height="1" fill="#EEE6E1" />
<rect x="16" y="14" width="1" height="1" fill="#E5D6D8" />
<rect x="20" y="14" width="1" height="1" fill="#427566" />
<rect x="22" y="14" width="1" height="1" fill="#427566" />
<rect x="23" y="14" width="2" height="1" fill="#5A9C76" />
<rect x="2" y="15" width="1" height="1" fill="#DAE6D2" />
<rect x="5" y="15" width="2" height="1" fill="#EEE6E1" />
<rect x="7" y="15" width="1" height="1" fill="#DAE6D2" />
<rect x="8" y="15" width="1" height="2" fill="#4C8665" />
<rect x="9" y="15" width="1" height="1" fill="#5A9C76" />
<rect x="10" y="15" width="3" height="1" fill="#A0CAA2" />
<rect x="14" y="15" width="1" height="1" fill="#BDD8BA" />
<rect x="15" y="15" width="1" height="1" fill="#E5D6D8" />
<rect x="16" y="15" width="1" height="1" fill="#BDD8BA" />
<rect x="17" y="15" width="2" height="1" fill="#427566" />
<rect x="20" y="15" width="1" height="1" fill="#BDD8BA" />
<rect x="22" y="15" width="1" height="5" fill="#83BB89" />
<rect x="23" y="15" width="1" height="1" fill="#427566" />
<rect x="6" y="16" width="1" height="1" fill="#DAE6D2" />
<rect x="7" y="16" width="1" height="1" fill="#4C8665" />
<rect x="9" y="16" width="1" height="2" fill="#E5D6D8" />
<rect x="10" y="16" width="1" height="1" fill="#5A9C76" />
<rect x="11" y="16" width="1" height="1" fill="#427566" />
<rect x="12" y="16" width="1" height="1" fill="#BDD8BA" />
<rect x="13" y="16" width="2" height="1" fill="#4C8665" />
<rect x="15" y="16" width="1" height="1" fill="#BDD8BA" />
<rect x="16" y="16" width="1" height="2" fill="#427566" />
<rect x="17" y="16" width="1" height="1" fill="#5A9C76" />
<rect x="18" y="16" width="3" height="1" fill="#427566" />
<rect x="21" y="16" width="1" height="2" fill="#83BB89" />
<rect x="23" y="16" width="1" height="2" fill="#83BB89" />
<rect x="4" y="17" width="2" height="1" fill="#EEE6E1" />
<rect x="7" y="17" width="1" height="1" fill="#5A9C76" />
<rect x="8" y="17" width="1" height="1" fill="#EEE6E1" />
<rect x="10" y="17" width="1" height="1" fill="#E5D6D8" />
<rect x="11" y="17" width="1" height="1" fill="#4C8665" />
<rect x="12" y="17" width="1" height="1" fill="#427566" />
<rect x="13" y="17" width="1" height="1" fill="#BDD8BA" />
<rect x="14" y="17" width="2" height="3" fill="#427566" />
<rect x="17" y="17" width="1" height="3" fill="#83BB89" />
<rect x="18" y="17" width="2" height="1" fill="#5A9C76" />
<rect x="20" y="17" width="1" height="1" fill="#427566" />
<rect x="4" y="18" width="1" height="1" fill="#EEE6E1" />
<rect x="5" y="18" width="1" height="1" fill="#BDD8BA" />
<rect x="7" y="18" width="1" height="1" fill="#EEE6E1" />
<rect x="8" y="18" width="1" height="1" fill="#E5D6D8" />
<rect x="9" y="18" width="1" height="2" fill="#BDD8BA" />
<rect x="10" y="18" width="2" height="1" fill="#5A9C76" />
<rect x="12" y="18" width="2" height="2" fill="#A0CAA2" />
<rect x="16" y="18" width="1" height="2" fill="#83BB89" />
<rect x="18" y="18" width="1" height="3" fill="#83BB89" />
<rect x="19" y="18" width="1" height="1" fill="#427566" />
<rect x="21" y="18" width="1" height="1" fill="#427566" />
<rect x="3" y="19" width="1" height="1" fill="#EEE6E1" />
<rect x="4" y="19" width="1" height="1" fill="#BDD8BA" />
<rect x="5" y="19" width="1" height="1" fill="#4C8665" />
<rect x="8" y="19" width="1" height="1" fill="#BDD8BA" />
<rect x="11" y="19" width="1" height="1" fill="#427566" />
<rect x="19" y="19" width="1" height="2" fill="#83BB89" />
<rect x="6" y="20" width="1" height="2" fill="#EEE6E1" />
<rect x="12" y="20" width="1" height="1" fill="#427566" />
<rect x="13" y="20" width="2" height="1" fill="#A0CAA2" />
<rect x="16" y="20" width="2" height="1" fill="#427566" />
<rect x="5" y="21" width="1" height="2" fill="#EEE6E1" />
<rect x="8" y="21" width="1" height="1" fill="#EEE6E1" />
<rect x="9" y="21" width="1" height="1" fill="#DAE6D2" />
<rect x="13" y="21" width="1" height="1" fill="#427566" />
<rect x="14" y="21" width="1" height="2" fill="#EEE6E1" />
<rect x="17" y="21" width="2" height="1" fill="#427566" />
<rect x="4" y="22" width="1" height="1" fill="#EEE6E1" />
<rect x="6" y="22" width="1" height="1" fill="#5A9C76" />
<rect x="8" y="22" width="2" height="1" fill="#E5D6D8" />
<rect x="10" y="22" width="1" height="1" fill="#5A9C76" />
<rect x="5" y="23" width="1" height="1" fill="#83BB89" />
<rect x="9" y="23" width="1" height="1" fill="#83BB89" />
</svg>